<svg width="800" height="600" viewBox="0 0 800 600" xmlns="http://www.w3.org/2000/svg">
  <!-- Background -->
  <rect width="800" height="600" fill="#f8fafc"/>
  
  <!-- Dashboard Frame -->
  <rect x="150" y="100" width="500" height="400" rx="20" fill="#e2e8f0" stroke="#64748b" stroke-width="4"/>
  
  <!-- Graph Area -->
  <rect x="180" y="140" width="440" height="200" fill="#fff" rx="10"/>
  
  <!-- Line Graph -->
  <path d="M200 280 Q280 200 340 260 T480 180" stroke="#60a5fa" stroke-width="4" fill="none"/>
  
  <!-- Bar Chart -->
  <rect x="200" y="300" width="30" height="80" fill="#34d399" rx="4"/>
  <rect x="250" y="320" width="30" height="60" fill="#34d399" rx="4"/>
  <rect x="300" y="280" width="30" height="100" fill="#34d399" rx="4"/>
  
  <!-- AI Elements -->
  <circle cx="400" cy="240" r="20" fill="#8b5cf6" opacity="0.8"/>
  <path d="M380 240 L420 240 M400 220 L400 260" stroke="#fff" stroke-width="2"/>
  
  <!-- Data Points -->
  <circle cx="280" cy="200" r="6" fill="#60a5fa"/>
  <circle cx="340" cy="260" r="6" fill="#60a5fa"/>
  <circle cx="400" cy="220" r="6" fill="#60a5fa"/>
  <circle cx="480" cy="180" r="6" fill="#60a5fa"/>
  
  <!-- Decorative Elements -->
  <circle cx="180" cy="80" r="30" fill="#bfdbfe" opacity="0.5"/>
  <circle cx="620" cy="520" r="40" fill="#ddd6fe" opacity="0.5"/>
  <circle cx="700" cy="150" r="25" fill="#fae8ff" opacity="0.5"/>
</svg>